{
  "accessors": [
    {
      "bufferView": 2,
      "componentType": 5126,
      "count": 441,
      "max": [
        430.0,
        5481.0888671875,
        605.021240234375
      ],
      "min": [
        -430.0,
        3990.739990234375,
        220.42013549804688
      ],
      "type": "VEC3"
    },
    {
      "bufferView": 2,
      "byteOffset": 5292,
      "componentType": 5126,
      "count": 441,
      "max": [
        0.0,
        0.24987585842609406,
        0.9682782888412476
      ],
      "min": [
        0.0,
        0.24987435340881348,
        0.9682778716087341
      ],
      "type": "VEC3"
    },
    {
      "bufferView": 1,
      "componentType": 5126,
      "count": 441,
      "max": [
        1.0,
        1.0
      ],
      "min": [
        0.0,
        0.0
      ],
      "type": "VEC2"
    },
    {
      "bufferView": 0,
      "componentType": 5125,
      "count": 2400,
      "type": "SCALAR"
    },
    {
      "bufferView": 2,
      "byteOffset": 10584,
      "componentType": 5126,
      "count": 1326,
      "max": [
        429.9999694824219,
        5460.794921875,
        108.50051879882813
      ],
      "min": [
        -430.0,
        3740.95458984375,
        -36.598697662353516
      ],
      "type": "VEC3"
    },
    {
      "bufferView": 2,
      "byteOffset": 26496,
      "componentType": 5126,
      "count": 1326,
      "max": [
        0.4161188006401062,
        0.3069690763950348,
        0.9999573826789856
      ],
      "min": [
        -0.41652238368988037,
        -0.18916618824005127,
        0.9016783237457275
      ],
      "type": "VEC3"
    },
    {
      "bufferView": 1,
      "byteOffset": 3528,
      "componentType": 5126,
      "count": 1326,
      "max": [
        1.0,
        1.0
      ],
      "min": [
        0.0,
        0.0
      ],
      "type": "VEC2"
    },
    {
      "bufferView": 0,
      "byteOffset": 9600,
      "componentType": 5125,
      "count": 7500,
      "type": "SCALAR"
    },
    {
      "bufferView": 2,
      "byteOffset": 42408,
      "componentType": 5126,
      "count": 1326,
      "max": [
        429.9999694824219,
        5460.794921875,
        108.50051879882813
      ],
      "min": [
        -430.0,
        3740.95458984375,
        -36.598697662353516
      ],
      "type": "VEC3"
    },
    {
      "bufferView": 2,
      "byteOffset": 58320,
      "componentType": 5126,
      "count": 1326,
      "max": [
        0.4161188006401062,
        0.3069690763950348,
        0.9999573826789856
      ],
      "min": [
        -0.41652238368988037,
        -0.18916618824005127,
        0.9016783237457275
      ],
      "type": "VEC3"
    },
    {
      "bufferView": 1,
      "byteOffset": 14136,
      "componentType": 5126,
      "count": 1326,
      "max": [
        1.0,
        1.0
      ],
      "min": [
        0.0,
        0.0
      ],
      "type": "VEC2"
    },
    {
      "bufferView": 0,
      "byteOffset": 39600,
      "componentType": 5125,
      "count": 7500,
      "type": "SCALAR"
    },
    {
      "bufferView": 2,
      "byteOffset": 74232,
      "componentType": 5126,
      "count": 9984,
      "max": [
        512.963623046875,
        5505.5263671875,
        1416.1461181640625
      ],
      "min": [
        -508.036376953125,
        3725.404052734375,
        -48.54732131958008
      ],
      "type": "VEC3"
    },
    {
      "bufferView": 2,
      "byteOffset": 194040,
      "componentType": 5126,
      "count": 9984,
      "max": [
        1.0,
        1.0,
        1.0
      ],
      "min": [
        -1.0,
        -1.0,
        -1.0
      ],
      "type": "VEC3"
    },
    {
      "bufferView": 1,
      "byteOffset": 24744,
      "componentType": 5126,
      "count": 9984,
      "max": [
        1.0,
        1.0
      ],
      "min": [
        0.0,
        0.0
      ],
      "type": "VEC2"
    },
    {
      "bufferView": 0,
      "byteOffset": 69600,
      "componentType": 5125,
      "count": 14976,
      "type": "SCALAR"
    },
    {
      "bufferView": 2,
      "byteOffset": 313848,
      "componentType": 5126,
      "count": 6960,
      "max": [
        454.2025451660156,
        5502.43896484375,
        1417.4952392578125
      ],
      "min": [
        -452.7315368652344,
        3725.404052734375,
        -48.54732131958008
      ],
      "type": "VEC3"
    },
    {
      "bufferView": 2,
      "byteOffset": 397368,
      "componentType": 5126,
      "count": 6960,
      "max": [
        1.0,
        0.9986596703529358,
        0.9986295104026794
      ],
      "min": [
        -1.0,
        -0.9986596703529358,
        -0.9986295104026794
      ],
      "type": "VEC3"
    },
    {
      "bufferView": 1,
      "byteOffset": 104616,
      "componentType": 5126,
      "count": 6960,
      "max": [
        1.0,
        1.0
      ],
      "min": [
        0.0,
        0.0
      ],
      "type": "VEC2"
    },
    {
      "bufferView": 0,
      "byteOffset": 129504,
      "componentType": 5125,
      "count": 10440,
      "type": "SCALAR"
    },
    {
      "bufferView": 2,
      "byteOffset": 480888,
      "componentType": 5126,
      "count": 2346,
      "max": [
        98.76551818847656,
        5553.30126953125,
        400.7239074707031
      ],
      "min": [
        -218.3393096923828,
        5521.37255859375,
        -51.203853607177734
      ],
      "type": "VEC3"
    },
    {
      "bufferView": 2,
      "byteOffset": 509040,
      "componentType": 5126,
      "count": 2346,
      "max": [
        1.0,
        0.6706526279449463,
        0.9986302852630615
      ],
      "min": [
        -1.0,
        -0.6706637144088745,
        -0.9986300468444824
      ],
      "type": "VEC3"
    },
    {
      "bufferView": 1,
      "byteOffset": 160296,
      "componentType": 5126,
      "count": 2346,
      "max": [
        0.7219973206520081,
        1.0
      ],
      "min": [
        0.0,
        0.0
      ],
      "type": "VEC2"
    },
    {
      "bufferView": 0,
      "byteOffset": 171264,
      "componentType": 5125,
      "count": 6666,
      "type": "SCALAR"
    },
    {
      "bufferView": 2,
      "byteOffset": 537192,
      "componentType": 5126,
      "count": 9982,
      "max": [
        500.3805847167969,
        5553.30126953125,
        1395.6217041015625
      ],
      "min": [
        -508.9399719238281,
        4020.5693359375,
        -51.203853607177734
      ],
      "type": "VEC3"
    },
    {
      "bufferView": 2,
      "byteOffset": 656976,
      "componentType": 5126,
      "count": 9982,
      "max": [
        1.0,
        0.985576331615448,
        0.9986315369606018
      ],
      "min": [
        -1.0,
        -0.985576331615448,
        -0.9986311197280884
      ],
      "type": "VEC3"
    },
    {
      "bufferView": 1,
      "byteOffset": 179064,
      "componentType": 5126,
      "count": 9982,
      "max": [
        1.0,
        1.0
      ],
      "min": [
        0.0,
        0.0
      ],
      "type": "VEC2"
    },
    {
      "bufferView": 0,
      "byteOffset": 197928,
      "componentType": 5125,
      "count": 25710,
      "type": "SCALAR"
    },
    {
      "bufferView": 2,
      "byteOffset": 776760,
      "componentType": 5126,
      "count": 9984,
      "max": [
        417.44024658203125,
        5553.30126953125,
        620.9029541015625
      ],
      "min": [
        -417.5350036621094,
        4107.50634765625,
        -51.203853607177734
      ],
      "type": "VEC3"
    },
    {
      "bufferView": 2,
      "byteOffset": 896568,
      "componentType": 5126,
      "count": 9984,
      "max": [
        1.0,
        0.9986847043037415,
        0.9682781100273132
      ],
      "min": [
        -1.0,
        -0.9986847043037415,
        -0.9682781100273132
      ],
      "type": "VEC3"
    },
    {
      "bufferView": 1,
      "byteOffset": 258920,
      "componentType": 5126,
      "count": 9984,
      "max": [
        1.0,
        1.0
      ],
      "min": [
        0.0,
        0.0
      ],
      "type": "VEC2"
    },
    {
      "bufferView": 0,
      "byteOffset": 300768,
      "componentType": 5125,
      "count": 26208,
      "type": "SCALAR"
    },
    {
      "bufferView": 2,
      "byteOffset": 1016376,
      "componentType": 5126,
      "count": 9918,
      "max": [
        500.3805847167969,
        5553.30126953125,
        1395.6217041015625
      ],
      "min": [
        -508.9399719238281,
        3994.954833984375,
        -51.203853607177734
      ],
      "type": "VEC3"
    },
    {
      "bufferView": 2,
      "byteOffset": 1135392,
      "componentType": 5126,
      "count": 9918,
      "max": [
        1.0,
        0.9986507296562195,
        0.9682781100273132
      ],
      "min": [
        -1.0,
        -0.9986295104026794,
        -0.9682781100273132
      ],
      "type": "VEC3"
    },
    {
      "bufferView": 1,
      "byteOffset": 338792,
      "componentType": 5126,
      "count": 9918,
      "max": [
        1.0,
        1.0
      ],
      "min": [
        0.0,
        0.0
      ],
      "type": "VEC2"
    },
    {
      "bufferView": 0,
      "byteOffset": 405600,
      "componentType": 5125,
      "count": 25248,
      "type": "SCALAR"
    },
    {
      "bufferView": 2,
      "byteOffset": 1254408,
      "componentType": 5126,
      "count": 9388,
      "max": [
        500.0212097167969,
        5553.30126953125,
        1395.6217041015625
      ],
      "min": [
        -491.3149719238281,
        4008.149658203125,
        -51.203853607177734
      ],
      "type": "VEC3"
    },
    {
      "bufferView": 2,
      "byteOffset": 1367064,
      "componentType": 5126,
      "count": 9388,
      "max": [
        1.0,
        0.9986847043037415,
        0.9986628890037537
      ],
      "min": [
        -1.0,
        -0.9986295104026794,
        -0.9987300038337708
      ],
      "type": "VEC3"
    },
    {
      "bufferView": 1,
      "byteOffset": 418136,
      "componentType": 5126,
      "count": 9388,
      "max": [
        1.0,
        1.0
      ],
      "min": [
        0.0,
        0.0
      ],
      "type": "VEC2"
    },
    {
      "bufferView": 0,
      "byteOffset": 506592,
      "componentType": 5125,
      "count": 24600,
      "type": "SCALAR"
    }
  ],
  "asset": {
    "extras": {
      "author": "Dr_Mint (https://sketchfab.com/Dr_Mint)",
      "license": "CC-BY-4.0 (http://creativecommons.org/licenses/by/4.0/)",
      "source": "https://sketchfab.com/3d-models/central-dogma-9c5f4eda56714df1b27911ad67d6797c",
      "title": "Central Dogma"
    },
    "generator": "Sketchfab-12.67.0",
    "version": "2.0"
  },
  "bufferViews": [
    {
      "buffer": 0,
      "byteLength": 604992,
      "name": "floatBufferViews",
      "target": 34963
    },
    {
      "buffer": 0,
      "byteLength": 493240,
      "byteOffset": 604992,
      "byteStride": 8,
      "name": "floatBufferViews",
      "target": 34962
    },
    {
      "buffer": 0,
      "byteLength": 1479720,
      "byteOffset": 1098232,
      "byteStride": 12,
      "name": "floatBufferViews",
      "target": 34962
    }
  ],
  "buffers": [
    {
      "byteLength": 2577952,
      "uri": "scene.bin"
    }
  ],
  "extensionsUsed": [
    "KHR_materials_unlit"
  ],
  "images": [
    {
      "uri": "textures/material_baseColor.png"
    },
    {
      "uri": "textures/Mat.1_1_baseColor.png"
    }
  ],
  "materials": [
    {
      "alphaMode": "BLEND",
      "doubleSided": true,
      "extensions": {
        "KHR_materials_unlit": {}
      },
      "name": "material",
      "pbrMetallicRoughness": {
        "baseColorFactor": [
          1.0,
          0.0,
          0.0,
          1.0
        ],
        "baseColorTexture": {
          "index": 0
        },
        "metallicFactor": 0.0
      }
    },
    {
      "alphaMode": "BLEND",
      "doubleSided": true,
      "extensions": {
        "KHR_materials_unlit": {}
      },
      "name": "Mat.1",
      "pbrMetallicRoughness": {
        "baseColorFactor": [
          0.0,
          0.0,
          0.0,
          0.0
        ],
        "metallicFactor": 0.0
      }
    },
    {
      "alphaMode": "BLEND",
      "doubleSided": true,
      "extensions": {
        "KHR_materials_unlit": {}
      },
      "name": "Mat.1_1",
      "pbrMetallicRoughness": {
        "baseColorTexture": {
          "index": 1
        },
        "metallicFactor": 0.0
      }
    },
    {
      "doubleSided": true,
      "extensions": {
        "KHR_materials_unlit": {}
      },
      "name": "Mat.3",
      "pbrMetallicRoughness": {
        "baseColorFactor": [
          1.0,
          0.5540790912347202,
          0.0,
          1.0
        ],
        "metallicFactor": 0.0
      }
    },
    {
      "doubleSided": true,
      "extensions": {
        "KHR_materials_unlit": {}
      },
      "name": "default",
      "pbrMetallicRoughness": {
        "baseColorFactor": [
          1.0,
          0.5520114015120001,
          0.0,
          1.0
        ],
        "metallicFactor": 0.0
      }
    }
  ],
  "meshes": [
    {
      "name": "Object_0",
      "primitives": [
        {
          "attributes": {
            "NORMAL": 1,
            "POSITION": 0,
            "TEXCOORD_0": 2
          },
          "indices": 3,
          "material": 0,
          "mode": 4
        }
      ]
    },
    {
      "name": "Object_1",
      "primitives": [
        {
          "attributes": {
            "NORMAL": 5,
            "POSITION": 4,
            "TEXCOORD_0": 6
          },
          "indices": 7,
          "material": 1,
          "mode": 4
        }
      ]
    },
    {
      "name": "Object_2",
      "primitives": [
        {
          "attributes": {
            "NORMAL": 9,
            "POSITION": 8,
            "TEXCOORD_0": 10
          },
          "indices": 11,
          "material": 2,
          "mode": 4
        }
      ]
    },
    {
      "name": "Object_3",
      "primitives": [
        {
          "attributes": {
            "NORMAL": 13,
            "POSITION": 12,
            "TEXCOORD_0": 14
          },
          "indices": 15,
          "material": 3,
          "mode": 4
        }
      ]
    },
    {
      "name": "Object_4",
      "primitives": [
        {
          "attributes": {
            "NORMAL": 17,
            "POSITION": 16,
            "TEXCOORD_0": 18
          },
          "indices": 19,
          "material": 3,
          "mode": 4
        }
      ]
    },
    {
      "name": "Object_5",
      "primitives": [
        {
          "attributes": {
            "NORMAL": 21,
            "POSITION": 20,
            "TEXCOORD_0": 22
          },
          "indices": 23,
          "material": 4,
          "mode": 4
        }
      ]
    },
    {
      "name": "Object_6",
      "primitives": [
        {
          "attributes": {
            "NORMAL": 25,
            "POSITION": 24,
            "TEXCOORD_0": 26
          },
          "indices": 27,
          "material": 4,
          "mode": 4
        }
      ]
    },
    {
      "name": "Object_7",
      "primitives": [
        {
          "attributes": {
            "NORMAL": 29,
            "POSITION": 28,
            "TEXCOORD_0": 30
          },
          "indices": 31,
          "material": 4,
          "mode": 4
        }
      ]
    },
    {
      "name": "Object_8",
      "primitives": [
        {
          "attributes": {
            "NORMAL": 33,
            "POSITION": 32,
            "TEXCOORD_0": 34
          },
          "indices": 35,
          "material": 4,
          "mode": 4
        }
      ]
    },
    {
      "name": "Object_9",
      "primitives": [
        {
          "attributes": {
            "NORMAL": 37,
            "POSITION": 36,
            "TEXCOORD_0": 38
          },
          "indices": 39,
          "material": 4,
          "mode": 4
        }
      ]
    }
  ],
  "nodes": [
    {
      "children": [
        1
      ],
      "matrix": [
        0.005491488613188267,
        0.0,
        0.0,
        0.0,
        0.0,
        2.1024541268239786e-18,
        -0.005491488613188267,
        0.0,
        0.0,
        0.005491488613188267,
        2.1024541268239786e-18,
        0.0,
        0.0,
        -7.958078640513122e-13,
        -1.7670484276950664e-28,
        1.0
      ],
      "name": "Sketchfab_model"
    },
    {
      "children": [
        2,
        3,
        4,
        5,
        6,
        7,
        8,
        9,
        10,
        11
      ],
      "name": "Untitled 1.obj.cleaner.materialmerger.gles"
    },
    {
      "mesh": 0,
      "name": "Object_2"
    },
    {
      "mesh": 1,
      "name": "Object_3"
    },
    {
      "mesh": 2,
      "name": "Object_4"
    },
    {
      "mesh": 3,
      "name": "Object_5"
    },
    {
      "mesh": 4,
      "name": "Object_6"
    },
    {
      "mesh": 5,
      "name": "Object_7"
    },
    {
      "mesh": 6,
      "name": "Object_8"
    },
    {
      "mesh": 7,
      "name": "Object_9"
    },
    {
      "mesh": 8,
      "name": "Object_10"
    },
    {
      "mesh": 9,
      "name": "Object_11"
    }
  ],
  "samplers": [
    {
      "magFilter": 9729,
      "minFilter": 9987,
      "wrapS": 10497,
      "wrapT": 10497
    }
  ],
  "scene": 0,
  "scenes": [
    {
      "name": "Sketchfab_Scene",
      "nodes": [
        0
      ]
    }
  ],
  "textures": [
    {
      "sampler": 0,
      "source": 0
    },
    {
      "sampler": 0,
      "source": 1
    }
  ]
}
