<svg xmlns="http://www.w3.org/2000/svg" version="1.1" xmlns:xlink="http://www.w3.org/1999/xlink" xmlns:svgjs="http://svgjs.dev/svgjs" width="1000" height="1125" viewBox="0 0 1000 1125"><g transform="matrix(1,0,0,1,0,0)"><svg viewBox="0 0 320 360" data-background-color="#35185a" preserveAspectRatio="xMidYMid meet" height="1125" width="1000" xmlns="http://www.w3.org/2000/svg" xmlns:xlink="http://www.w3.org/1999/xlink"><g id="tight-bounds" transform="matrix(1,0,0,1,0,0)"><svg viewBox="0 0 320 360" height="360" width="320"><g><svg></svg></g><g><svg viewBox="0 0 320 360" height="360" width="320"><g><path xmlns="http://www.w3.org/2000/svg" d="M320 187.111c0-45.764-20.238-86.866-52.203-114.908-28.043-31.964-69.145-52.203-114.908-52.203-84.302 0-152.889 68.587-152.889 152.889 0 45.753 20.231 86.848 52.185 114.891 28.043 31.975 69.152 52.22 114.926 52.22 0.299 0 0.59-0.021 0.889-0.021 0.299 0 0.59 0.021 0.889 0.021 83.456 0 151.111-67.655 151.111-151.111 0-0.299-0.021-0.59-0.021-0.889 0-0.299 0.021-0.59 0.021-0.889zM59.833 263.097c-15.093-21.255-24.071-47.143-24.256-75.097 0.48-72.928 59.492-131.943 132.423-132.423 27.954 0.185 53.845 9.163 75.097 24.256 24.366 23.627 39.57 56.64 39.57 93.056 0 71.559-58.219 129.778-129.778 129.778-36.416 0-69.429-15.204-93.056-39.57zM3.556 172.889c0-82.343 66.99-149.333 149.333-149.333 35.051 0 67.292 12.167 92.8 32.462-22.98-13.824-49.863-21.796-78.578-21.796-84.302 0-152.889 68.587-152.889 152.889 0 28.708 7.968 55.584 21.785 78.56-20.288-25.5-32.452-57.739-32.451-92.782zM167.111 318.667c-35.84 0-68.363-14.418-92.107-37.743 21.952 15.89 48.864 25.298 77.885 25.298 73.522 0 133.333-59.812 133.333-133.333 0-29.02-9.408-55.932-25.298-77.885 23.324 23.744 37.742 56.267 37.743 92.107 0 72.54-59.015 131.556-131.556 131.556z" fill="#a437db" fill-rule="nonzero" stroke="none" stroke-width="1" stroke-linecap="butt" stroke-linejoin="miter" stroke-miterlimit="10" stroke-dasharray="" stroke-dashoffset="0" font-family="none" font-weight="none" font-size="none" text-anchor="none" style="mix-blend-mode: normal" data-fill-palette-color="tertiary"></path></g><g transform="matrix(1,0,0,1,64,119.51643200949367)"><svg viewBox="0 0 192 120.96713598101266" height="120.96713598101266" width="192"><g><svg viewBox="0 0 192 120.96713598101266" height="120.96713598101266" width="192"><g><svg viewBox="0 0 192 120.96713598101266" height="120.96713598101266" width="192"><g><svg viewBox="0 0 192 120.96713598101266" height="120.96713598101266" width="192"><g><rect width="192" height="86.58176265822785" fill="none" stroke-width="5.909922" stroke="#a437db" data-fill-palette-color="none" data-stroke-palette-color="tertiary"></rect><rect width="192" height="34.38537332278481" y="86.58176265822785" fill="#a437db" data-fill-palette-color="tertiary"></rect></g><g><svg viewBox="0 0 192 86.58176265822785" height="86.58176265822785" width="192"><g transform="matrix(1,0,0,1,15.471,15.471)"><svg width="161.058" viewBox="3.5999999046325684 -32.75 94.79000091552734 32.75" height="55.639762658227845" data-palette-color="#a437db"><path d="M21.25 0L3.6 0 3.6-4.65 10.05-4.65 10.05-28.1 3.6-28.1 3.6-32.75 21.25-32.75 21.25-28.1 15.25-28.1 15.25-4.65 21.25-4.65 21.25 0ZM33.75 0L25.65-32.75 31.5-32.75 37.65-5.25 43.65-32.75 49.45-32.75 41.45 0 33.75 0ZM72.3 0L53 0 53-32.75 72.15-32.75 72.15-28.05 58.2-28.05 58.2-18.95 70.8-18.95 70.8-14.45 58.2-14.45 58.2-4.7 72.3-4.7 72.3 0ZM87.39-11.95L87.39-11.95Q84.69-11.8 84.39-11.8L84.39-11.8 82.04-11.8 82.04 0 76.84 0 76.84-32.75 87.14-32.75Q92.59-32.75 95.39-30.33 98.19-27.9 98.19-22.25L98.19-22.25Q98.19-15.75 92.59-13.1L92.59-13.1Q96.04-6.55 98.39 0L98.39 0 92.79 0Q90.54-6.05 87.39-11.95ZM86.14-28.15L86.14-28.15 82.04-28.15 82.04-16.6 86.19-16.6Q92.89-16.6 92.89-22.25L92.89-22.25Q92.89-25.4 91.29-26.78 89.69-28.15 86.14-28.15Z" opacity="1" transform="matrix(1,0,0,1,0,0)" fill="#a437db" class="undefined-text-0" data-fill-palette-color="primary" id="text-0"></path></svg></g></svg></g></svg></g></svg></g></svg></g></svg></g></svg></g><defs></defs></svg><rect width="320" height="360" fill="none" stroke="none" visibility="hidden"></rect></g></svg></g></svg>